<svg xmlns="http://www.w3.org/2000/svg" viewBox="0 0 1024 1024">
  <!-- Token Guard master icon: shield with centered bold T -->
  <path fill="#10b981" d="M512 48
    L916 160
    L916 488
    C916 704, 748 896, 512 976
    C276 896, 108 704, 108 488
    L108 160
    Z"/>
  <path fill="#ffffff" d="M264 224
    h496
    a28 28 0 0 1 28 28
    v28
    a28 28 0 0 1 -28 28
    h-136
    v492
    a28 28 0 0 1 -28 28
    h-168
    a28 28 0 0 1 -28 -28
    v-492
    h-136
    a28 28 0 0 1 -28 -28
    v-28
    a28 28 0 0 1 28 -28Z"/>
</svg>