<svg xmlns="http://www.w3.org/2000/svg" viewBox="0 0 512 512">
  <!-- Token Guard master icon: shield with bold T -->
  <path fill="#10b981" d="M256 24
    C256 24, 448 96, 448 96
    C472 220, 460 360, 420 420
    C380 480, 256 496, 256 496
    C256 496, 132 480, 92 420
    C52 360, 40 220, 64 96
    C64 96, 256 24, 256 24Z"/>
  <path fill="#ffffff" d="M126 126
    h260
    a14 14 0 0 1 14 14
    v64
    a14 14 0 0 1 -14 14
    h-79
    v170
    a14 14 0 0 1 -14 14
    h-74
    a14 14 0 0 1 -14 -14
    v-170
    h-79
    a14 14 0 0 1 -14 -14
    v-64
    a14 14 0 0 1 14 -14Z"/>
</svg>